OpenSim_Sub01_CSBaseline_RCS.mot
version=1
nRows=75
nColumns=11
inDegrees=no
endheader
time	Top_Thigh	Med_Thigh	Bot_Thigh	Top_Shank	2nd_Top_Shank	2nd_Bot_Shank	Bot_Shank	BNOx	BNOy	BNOZ
29.75000000	1291.21286360	1239.90692374	1158.89070015	959.96918963	1064.07843385	939.39992702	919.98185598	18.89275804	-68.68452268	151.29712710
29.76000000	1291.01085081	1239.83927972	1158.78959580	959.93366965	1064.22414630	939.60394246	919.96884388	19.48728896	-68.41446063	150.52705687
29.77000000	1291.15904089	1239.78288339	1158.68892732	959.89413499	1064.41882934	939.70856552	919.95812706	20.08788084	-68.13925612	149.81586677
29.78000000	1291.59887327	1239.73982531	1158.59764406	959.85521220	1064.63991199	939.73077815	919.95006083	20.69263122	-67.86019404	149.15569682
29.79000000	1292.27178738	1239.71219603	1158.52469540	959.82152785	1064.86482326	939.68756229	919.94500051	21.29963768	-67.57855926	148.53868705
29.80000000	1293.11922266	1239.70208611	1158.47903068	959.79770850	1065.07099219	939.59589987	919.94330141	21.90699779	-67.29563666	147.95697748
29.81000000	1294.08261855	1239.71158611	1158.46959929	959.78838072	1065.23584781	939.47277284	919.94531883	22.51280910	-67.01271110	147.40270812
29.82000000	1295.10341447	1239.74278660	1158.50535058	959.79817108	1065.33681913	939.33516313	919.95140810	23.11516920	-66.73106747	146.86801902
29.83000000	1296.12304986	1239.79777812	1158.59523392	959.83170613	1065.35133518	939.20005268	919.96192452	23.71217563	-66.45199064	146.34505019
29.84000000	1297.08296416	1239.87865124	1158.74819867	959.89361244	1065.25682498	939.08442344	919.97722341	24.30192597	-66.17676549	145.82594164
29.85000000	1297.92459681	1239.98749652	1158.97319420	959.98851658	1065.03071757	939.00525733	919.99766008	24.88251778	-65.90667688	145.30283341
29.86000000	1298.59804872	1240.12362016	1159.27422224	960.11771814	1064.65718805	938.97562713	920.02307898	25.45325102	-65.64247445	144.76833528
29.87000000	1299.10026895	1240.27126848	1159.62852387	960.26452181	1064.15689961	938.98746167	920.05056150	26.01992905	-65.38201275	144.21759785
29.88000000	1299.44397305	1240.40961942	1160.00433399	960.40617621	1063.56279537	939.02557394	920.07625911	26.59054396	-65.12217202	143.64662680
29.89000000	1299.64188849	1240.51784711	1160.36988070	960.51992538	1062.90782767	939.07477154	920.09632257	27.17308946	-64.85983176	143.05142849
29.90000000	1299.70674272	1240.57512567	1160.69339212	960.58301336	1062.22494890	939.11986206	920.10690267	27.77555929	-64.59187146	142.42800926
29.91000000	1299.65126318	1240.56062925	1160.94309636	960.57268419	1061.54711139	939.14565311	920.10415018	28.40594717	-64.31517064	141.77237546
29.92000000	1299.48817734	1240.45353197	1161.08722152	960.46618191	1060.90726753	939.13695229	920.08421586	29.07224683	-64.02660878	141.08053342
29.93000000	1299.23021265	1240.23300796	1161.09399573	960.24075056	1060.33836965	939.07856722	920.04325049	29.78245198	-63.72306540	140.34848948
29.94000000	1298.89033559	1239.87876860	1160.93222284	959.87389471	1059.87320277	938.95538770	919.97750440	30.54450648	-63.40142603	139.57228803
29.95000000	1298.50000647	1239.41209182	1160.61525348	959.36327616	1059.53160230	938.75866480	919.89093008	31.36249511	-63.05904280	138.75091562
29.96000000	1298.12203390	1238.92471381	1160.23194809	958.74072462	1059.31145331	938.49043230	919.80053582	32.23396127	-62.69405881	137.88834607
29.97000000	1297.82226309	1238.51519570	1159.87848141	958.04137947	1059.20851461	938.15376846	919.72459451	33.15581472	-62.30469375	136.98903625
29.98000000	1297.66653922	1238.28209863	1159.65102817	957.30038008	1059.21854500	937.75175153	919.68137908	34.12496523	-61.88916732	136.05744307
29.99000000	1297.72070748	1238.32398371	1159.64576310	956.55286586	1059.33730332	937.28745979	919.68916242	35.13832256	-61.44569922	135.09802342
30	1298.05061305	1238.73941209	1159.95886093	955.83397618	1059.56054838	936.76397147	919.76621746	36.19279649	-60.97250915	134.11523418
30.01000000	1298.72210113	1239.62694490	1160.68649640	955.17885042	1059.88403899	936.18436486	919.93081711	37.28529677	-60.46781680	133.11353225
30.02000000	1299.76856654	1241.05035445	1161.89381088	954.61080202	1060.29741841	935.55118914	920.19478340	38.41381686	-59.93012330	132.09645227
30.03000000	1300.88839906	1242.71426651	1163.32556946	954.03105769	1060.72719519	934.86153178	920.50334206	39.58753777	-59.36083501	131.05800801
30.04000000	1301.58235347	1244.11142974	1164.53753238	953.26881956	1061.06263180	934.10925814	920.76243058	40.82224060	-58.76307225	129.98659638
30.05000000	1301.34863013	1244.73185427	1165.08301702	952.15235885	1061.19250929	933.28819188	920.87747862	42.13379174	-58.13997749	128.87054175
30.06000000	1299.68542943	1244.06555025	1164.51534076	950.50994678	1061.00560874	932.39215671	920.75391587	43.53805756	-57.49469319	127.69816845
30.07000000	1296.09095175	1241.60252784	1162.38782100	948.16985457	1060.39071121	931.41497631	920.29717201	45.05090446	-56.83036182	126.45780081
30.08000000	1290.10536769	1236.87357489	1158.28933144	944.97601305	1059.24503318	930.35168844	919.41877741	46.68716391	-56.14973790	125.13887132
30.09000000	1281.89684714	1230.01963464	1152.34077393	941.00666719	1057.59201012	929.21549676	918.12154685	48.44618169	-55.44977133	123.74739330
30.10000000	1272.11699502	1221.65134912	1145.07260660	936.52043748	1055.55224107	928.03358907	916.47856604	50.31538274	-54.72294352	122.30214407
30.11000000	1261.42985190	1212.39144265	1137.02582280	931.78058428	1053.24882449	926.83351292	914.56472829	52.28188533	-53.96162098	120.82222930
30.12000000	1250.49945833	1202.86263956	1128.74141588	927.05036796	1050.80485882	925.64281584	912.45492692	54.33280773	-53.15817019	119.32675464
30.13000000	1239.98985489	1193.68766418	1120.76037919	922.59304886	1048.34344251	924.48904537	910.22405524	56.45526822	-52.30495765	117.83482574
30.14000000	1230.56508213	1185.48924083	1113.62370607	918.67188737	1045.98767399	923.39974906	907.94700657	58.63638508	-51.39434985	116.36554826
30.15000000	1222.88918062	1178.89009383	1107.87238986	915.55014384	1043.86065172	922.40247442	905.69867422	60.86327657	-50.41871329	114.93802786
30.16000000	1217.62619091	1174.51294751	1104.04742393	913.49107863	1042.08547413	921.52476900	903.55395151	63.12306097	-49.37041446	113.57137018
30.17000000	1215.44015357	1172.98052619	1102.68980161	912.75795210	1040.78523968	920.79418035	901.58773175	65.40285657	-48.24181984	112.28468090
30.18000000	1216.99510916	1174.91555420	1104.34051624	913.61402463	1040.08304681	920.23825598	899.87490826	67.68978162	-47.02529594	111.09706565
30.19000000	1222.93158509	1180.91823624	1109.52187026	916.31328874	1040.09893960	919.88370247	898.48910866	69.97030149	-45.71385925	110.02741417
30.20000000	1232.97603483	1190.71332670	1118.02955601	920.74945016	1040.83422379	919.72453322	897.45475658	72.20549907	-44.32579522	109.08622146
30.21000000	1245.66749745	1202.88833909	1128.71537372	926.34818931	1042.13595980	919.71229211	896.73235793	74.32348458	-42.91221456	108.27307756
30.22000000	1259.46565516	1215.95478317	1140.36804172	932.50390768	1043.84089960	919.79568469	896.27814690	76.25016458	-41.52642176	107.58684370
30.23000000	1272.83019014	1228.42416871	1151.77627830	938.61100677	1045.78579512	919.92341654	896.04835766	77.91144568	-40.22172129	107.02638109
30.24000000	1284.24038686	1238.82748510	1161.74382802	944.07137611	1047.80889496	920.04478723	895.99944847	79.23454767	-39.05088385	106.59033980
30.25000000	1292.93756902	1246.45299181	1169.65857966	948.57800200	1049.80662924	920.13218923	896.09658818	80.19774182	-38.04592877	106.26916071
30.26000000	1299.15297618	1251.57266895	1175.66724607	952.20201580	1051.75100794	920.18801349	896.31626102	80.84561704	-37.21191870	106.04262072
30.27000000	1303.18400564	1254.52424034	1179.96725359	955.03982094	1053.61909219	920.21665577	896.63570743	81.22719437	-36.55211468	105.88978402
30.28000000	1305.32805472	1255.64542979	1182.75602854	957.18782083	1055.38794310	920.22251186	897.03216786	81.39149483	-36.06977780	105.78971481
30.29000000	1305.88252072	1255.27396111	1184.23099726	958.74241889	1057.03462180	920.20997753	897.48288278	81.38753948	-35.76816910	105.72147728
30.30000000	1305.14480095	1253.74755813	1184.58958609	959.80001856	1058.53618941	920.18344858	897.96509262	81.26434933	-35.65054967	105.66413564
30.31000000	1303.41229272	1251.40394465	1184.02922135	960.45702325	1059.86970705	920.14732078	898.45603785	81.07094542	-35.72018056	105.59675408
30.32000000	1300.98239334	1248.58084448	1182.74732939	960.80983638	1061.01223583	920.10598990	898.93295890	80.85634879	-35.98032284	105.49839679
30.33000000	1298.15250010	1245.61598146	1180.94133653	960.95486138	1061.94083689	920.06385174	899.37309624	80.66958048	-36.43423757	105.34812799
30.34000000	1295.22001033	1242.84707938	1178.80866912	960.98850166	1062.63257133	920.02530206	899.75369031	80.55966151	-37.08518583	105.12501185
30.35000000	1292.48186556	1240.61124370	1176.54652316	961.00700435	1063.06458971	919.99472839	900.05203044	80.57527321	-37.93641591	104.80829213
30.36000000	1290.13838438	1239.11448636	1174.30326653	961.07347819	1063.23300072	919.97476609	900.25576657	80.69307712	-38.98847152	104.41527856
30.37000000	1288.17430678	1238.27033242	1172.11832509	961.17709593	1063.17621118	919.96414121	900.37566460	80.72904919	-40.23586202	104.04821102
30.38000000	1286.54520360	1237.95273153	1170.01638414	961.29702628	1062.93835114	919.96105087	900.42561815	80.47742354	-41.67228028	103.82082101
30.39000000	1285.20664563	1238.03563333	1168.02212897	961.41243793	1062.56355063	919.96369216	900.41952084	79.73243429	-43.29141917	103.84684005
30.40000000	1284.11420371	1238.39298747	1166.16024488	961.50249961	1062.09593970	919.97026221	900.37126630	78.28831557	-45.08697158	104.23999964
30.41000000	1283.22344863	1238.89874361	1164.45541716	961.54638000	1061.57964839	919.97895812	900.29474815	75.93930151	-47.05263038	105.11403129
30.42000000	1282.48995122	1239.42685139	1162.93233110	961.52324783	1061.05880673	919.98797699	900.20386002	72.47962622	-49.18208844	106.58266650
30.43000000	1281.86928229	1239.85126046	1161.61567200	961.41227180	1060.57754478	919.99551594	900.11249553	67.70352382	-51.46903863	108.75963678
30.44000000	1281.31701266	1240.04592048	1160.53012515	961.19262061	1060.17999256	919.99977207	900.03454830	61.40522846	-53.90717384	111.75867363
30.45000000	1280.79181091	1239.88956857	1159.70030496	960.84399351	1059.90970356	919.99902328	899.98368256	53.41910274	-56.48886190	115.67684424
30.46000000	1280.37277160	1239.44705507	1159.14807038	960.36671473	1059.78781760	919.99468774	899.96464431	45.13950514	-59.15496036	119.96339043
30.47000000	1280.29542689	1239.02499794	1158.89170086	959.78790101	1059.80635834	919.99226301	899.97059451	39.98728386	-61.77941299	123.22600594
30.48000000	1280.80576392	1238.94617290	1158.94923666	959.13645972	1059.95540357	919.99751926	899.99391988	41.51872081	-64.23169163	124.01614243
30.49000000	1282.11030013	1239.49215620	1159.33050393	958.43811402	1060.22318934	920.01544048	900.02743308	52.82540761	-66.39442016	121.04347111
